<?xml version="1.0" standalone="no"?>
<!DOCTYPE svg PUBLIC "-//W3C//DTD SVG 20010904//EN"
 "http://www.w3.org/TR/2001/REC-SVG-20010904/DTD/svg10.dtd">
<svg version="1.0" xmlns="http://www.w3.org/2000/svg"
 width="512.000000pt" height="512.000000pt" viewBox="0 0 512.000000 512.000000"
 preserveAspectRatio="xMidYMid meet">
<metadata>
Created by potrace 1.14, written by Peter Selinger 2001-2017
</metadata>
<g transform="translate(0.000000,512.000000) scale(0.100000,-0.100000)"
fill="#000000" stroke="none">
<path d="M2240 5099 c-155 -40 -282 -133 -365 -268 l-36 -58 -89 -6 c-97 -7
-153 -23 -245 -69 -59 -29 -144 -94 -176 -133 -10 -11 -29 -33 -43 -50 -56
-63 -116 -220 -128 -330 l-3 -30 -95 -1 c-338 -3 -612 -266 -626 -602 -3 -75
11 -184 31 -234 5 -12 -7 -25 -46 -52 -142 -95 -267 -261 -324 -430 -41 -121
-56 -308 -34 -421 45 -226 171 -427 346 -552 35 -24 63 -48 63 -51 0 -4 -9
-38 -19 -75 -32 -117 -19 -279 33 -401 59 -139 204 -279 346 -334 97 -37 145
-45 253 -45 77 1 77 1 78 -26 3 -113 64 -256 154 -365 37 -45 134 -120 196
-152 71 -35 186 -64 261 -65 l66 -1 35 -56 c84 -136 207 -227 364 -270 92 -26
242 -23 333 6 217 70 375 254 415 482 4 19 7 85 7 146 l1 111 205 0 204 0 47
-41 c25 -22 69 -66 98 -96 l52 -55 -18 -53 c-34 -100 -6 -199 74 -270 160
-141 417 -26 417 187 0 171 -155 288 -328 246 -30 -7 -37 -2 -134 94 -56 56
-116 109 -133 118 -27 15 -66 17 -248 19 -119 1 -221 4 -227 8 -6 3 -9 79 -9
200 l1 194 323 0 323 0 15 -29 c67 -128 211 -182 337 -125 201 90 203 355 3
458 -45 24 -132 31 -180 15 -56 -19 -115 -68 -143 -118 l-27 -49 -326 0 -326
0 1 248 1 247 391 3 392 2 6 -23 c9 -38 82 -113 128 -132 68 -28 146 -28 207
0 29 14 60 32 69 41 86 85 107 198 57 300 -62 126 -218 179 -344 115 -44 -23
-121 -107 -121 -134 0 -16 -23 -17 -392 -15 l-393 3 -1 271 -1 270 104 0 105
-1 13 -31 c18 -43 80 -102 129 -125 51 -23 143 -25 193 -4 100 42 156 121 160
225 5 150 -102 261 -253 263 -99 0 -193 -60 -229 -147 l-13 -31 -89 2 c-48 0
-95 2 -104 2 -15 1 -17 23 -16 216 l0 215 409 0 c266 0 416 -4 429 -10 11 -6
149 -140 308 -298 l289 -288 -12 -55 c-41 -176 75 -323 254 -321 106 1 203 80
235 191 12 39 7 117 -9 155 -21 50 -80 111 -131 135 -52 24 -135 29 -189 11
-21 -6 -39 -10 -41 -8 -2 1 -138 136 -302 299 -285 283 -332 323 -385 333 -13
3 -210 5 -439 5 l-415 1 -1 155 0 155 326 0 c404 0 366 -13 571 194 l144 146
67 -6 c198 -19 337 157 269 338 -48 130 -194 196 -324 147 -132 -50 -194 -186
-148 -324 l20 -59 -140 -141 -141 -140 -322 -3 -323 -3 2 248 1 248 87 1 87 2
12 -31 c36 -86 132 -147 232 -147 132 0 246 107 252 238 10 188 -185 321 -359
244 -49 -23 -103 -75 -122 -119 -8 -18 -22 -33 -32 -34 -17 -1 -110 -1 -144 0
-14 1 -18 10 -18 44 -1 102 -54 243 -127 335 -76 97 -204 181 -323 213 -76 20
-216 19 -300 -2z"/>
<path d="M4540 3803 c-160 -26 -256 -163 -220 -313 36 -150 204 -232 347 -170
98 42 154 131 149 240 -5 134 -89 221 -236 245 -8 1 -26 0 -40 -2z"/>
<path d="M4767 1879 c-130 -30 -209 -132 -202 -262 13 -267 375 -327 486 -82
80 176 -95 388 -284 344z"/>
<path d="M4393 1082 c-199 -81 -209 -364 -16 -459 265 -129 500 220 278 414
-71 63 -174 81 -262 45z"/>
</g>
</svg>
